<svg viewBox="0 0 64 64">
<g>
<path d="M59.09,29.941,43.019,19.526A1.964,1.964,0,0,0,40,21.214V23.57L4.824,30.651A.982.982,0,0,0,4.8,32.585L40,40.57v2.216a1.963,1.963,0,0,0,3.071,1.653L59.142,33.28A2.019,2.019,0,0,0,59.09,29.941Z"></path>
<path d="M60,31.57a1.987,1.987,0,0,0-.906-1.629L43.019,19.526A1.964,1.964,0,0,0,40,21.214V23.57L4.824,30.651a1,1,0,0,0-.817.919Z"></path>
<path d="M41.964,45.787a2.931,2.931,0,0,1-1.36-.335A2.994,2.994,0,0,1,39,42.786V41.369L4.575,33.56A1.981,1.981,0,0,1,4.6,29.677L39,22.751V21.214a3,3,0,0,1,1.562-2.643,2.9,2.9,0,0,1,3,.116L59.634,29.1a3.021,3.021,0,0,1,.079,5L43.641,45.26A2.943,2.943,0,0,1,41.964,45.787Zm.007-25.577a.964.964,0,0,0-.453.118.988.988,0,0,0-.518.886v3.175L5.021,31.632,41,39.772v3.014a.987.987,0,0,0,.53.893.915.915,0,0,0,.97-.062L58.572,32.459a1.02,1.02,0,0,0-.026-1.679L42.475,20.366A.92.92,0,0,0,41.971,20.21Z"></path>
</g>
</svg>