<svg viewBox="0 0 512 512">
	<path d="m497 142.464844h-56.230469v-56.234375c0-8.285157-6.71875-15-15-15h-56.234375v-56.230469c0-8.285156-6.714844-15-15-15h-339.535156c-8.285156 0-15 6.714844-15 15v237.4375c0 8.285156 6.714844 15 15 15h56.230469v56.230469c0 8.285156 6.714843 15 15 15h56.234375v56.234375c0 8.28125 6.714844 15 15 15h339.535156c8.285156 0 15-6.71875 15-15v-237.4375c0-8.285156-6.714844-15-15-15zm-467-112.464844h309.535156v207.4375h-309.535156zm71.230469 237.4375h253.304687c8.285156 0 15-6.714844 15-15v-151.207031h41.234375v207.441406h-309.539062zm380.769531 112.464844h-309.535156v-41.230469h253.304687c8.285157 0 15-6.71875 15-15v-151.207031h41.230469zm0 0"></path>
</svg>